# Blender 3.6.22
# www.blender.org
mtllib text.mtl
o Text
v 0.776396 0.000000 -0.184134
v 0.665493 0.000000 -0.220129
v 0.550443 0.000000 -0.198333
v 0.501109 0.000000 -0.134560
v 0.500528 0.000000 -0.070650
v 0.702264 0.000000 0.101902
v 0.706396 0.000000 0.116866
v 0.697285 0.000000 0.143866
v 0.640396 0.000000 0.167866
v 0.493396 0.000000 0.108866
v 0.493396 0.000000 0.204866
v 0.689873 0.000000 0.241574
v 0.755271 0.000000 0.209491
v 0.792336 0.000000 0.151074
v 0.787655 0.000000 0.071644
v 0.589984 0.000000 -0.091717
v 0.587396 0.000000 -0.102134
v 0.594692 0.000000 -0.123430
v 0.615100 0.000000 -0.137838
v 0.646396 0.000000 -0.143134
v 0.776396 0.000000 -0.096134
v 0.387396 0.000000 -0.445134
v 0.298396 0.000000 -0.445134
v 0.298396 0.000000 0.236866
v 0.387396 0.000000 0.236866
v 0.168396 0.000000 -0.445134
v 0.079396 0.000000 -0.445134
v 0.079396 0.000000 0.236866
v 0.168396 0.000000 0.236866
v -0.001604 0.000000 0.156866
v -0.048604 0.000000 0.180866
v -0.059677 0.000000 0.177379
v -0.087641 0.000000 -0.156838
v -0.184933 0.000000 -0.217254
v -0.288345 0.000000 -0.214430
v -0.377604 0.000000 -0.160134
v -0.377604 0.000000 -0.063134
v -0.284641 0.000000 -0.129282
v -0.182166 0.000000 -0.124431
v -0.159666 0.000000 -0.094103
v -0.154604 0.000000 -0.034134
v -0.350927 0.000000 0.052495
v -0.386604 0.000000 0.135866
v -0.378698 0.000000 0.177522
v -0.346054 0.000000 0.222110
v -0.307669 0.000000 0.241746
v -0.235678 0.000000 0.240829
v -0.155604 0.000000 0.199866
v -0.138471 0.000000 0.230780
v -0.068120 0.000000 0.244194
v -0.001604 0.000000 0.210866
v -0.154604 0.000000 0.145866
v -0.232604 0.000000 0.182866
v -0.278479 0.000000 0.165241
v -0.294433 0.000000 0.137380
v -0.295261 0.000000 0.107163
v -0.266280 0.000000 0.065725
v -0.154604 0.000000 0.014866
v -0.900604 0.000000 0.236866
v -0.557901 0.000000 0.220241
v -0.485479 0.000000 0.177366
v -0.438062 0.000000 0.097514
v -0.463304 0.000000 -0.045449
v -0.596604 0.000000 -0.123134
v -0.596604 0.000000 -0.125134
v -0.510153 0.000000 -0.194826
v -0.493294 0.000000 -0.253900
v -0.504745 0.000000 -0.334603
v -0.542479 0.000000 -0.390384
v -0.636007 0.000000 -0.438217
v -0.900604 0.000000 -0.445134
v -0.802604 0.000000 -0.357134
v -0.656042 0.000000 -0.349462
v -0.611023 0.000000 -0.319562
v -0.594585 0.000000 -0.244654
v -0.618300 0.000000 -0.190082
v -0.674182 0.000000 -0.159900
v -0.802604 0.000000 -0.153134
v -0.802604 0.000000 -0.065134
v -0.583993 0.000000 -0.044098
v -0.537636 0.000000 0.011486
v -0.540245 0.000000 0.079257
v -0.553584 0.000000 0.103184
v -0.608276 0.000000 0.139163
v -0.802604 0.000000 0.148866
v 0.776396 -0.159064 -0.184134
v 0.665493 -0.159064 -0.220129
v 0.550443 -0.159064 -0.198333
v 0.501109 -0.159064 -0.134560
v 0.500528 -0.159064 -0.070650
v 0.702264 -0.159064 0.101902
v 0.706396 -0.159064 0.116866
v 0.697285 -0.159064 0.143866
v 0.640396 -0.159064 0.167866
v 0.493396 -0.159064 0.108866
v 0.493396 -0.159064 0.204866
v 0.689873 -0.159064 0.241574
v 0.755271 -0.159064 0.209491
v 0.792336 -0.159064 0.151074
v 0.787655 -0.159064 0.071644
v 0.589984 -0.159064 -0.091717
v 0.587396 -0.159064 -0.102134
v 0.594692 -0.159064 -0.123430
v 0.615100 -0.159064 -0.137838
v 0.646396 -0.159064 -0.143134
v 0.776396 -0.159064 -0.096134
v 0.387396 -0.159064 -0.445134
v 0.298396 -0.159064 -0.445134
v 0.298396 -0.159064 0.236866
v 0.387396 -0.159064 0.236866
v 0.168396 -0.159064 -0.445134
v 0.079396 -0.159064 -0.445134
v 0.079396 -0.159064 0.236866
v 0.168396 -0.159064 0.236866
v -0.001604 -0.159064 0.156866
v -0.048604 -0.159064 0.180866
v -0.059677 -0.159064 0.177379
v -0.087641 -0.159064 -0.156838
v -0.184933 -0.159064 -0.217254
v -0.288345 -0.159064 -0.214430
v -0.377604 -0.159064 -0.160134
v -0.377604 -0.159064 -0.063134
v -0.284641 -0.159064 -0.129282
v -0.182166 -0.159064 -0.124431
v -0.159666 -0.159064 -0.094103
v -0.154604 -0.159064 -0.034134
v -0.350927 -0.159064 0.052495
v -0.386604 -0.159064 0.135866
v -0.378698 -0.159064 0.177522
v -0.346054 -0.159064 0.222110
v -0.307669 -0.159064 0.241746
v -0.235678 -0.159064 0.240829
v -0.155604 -0.159064 0.199866
v -0.138471 -0.159064 0.230780
v -0.068120 -0.159064 0.244194
v -0.001604 -0.159064 0.210866
v -0.154604 -0.159064 0.145866
v -0.232604 -0.159064 0.182866
v -0.278479 -0.159064 0.165241
v -0.294433 -0.159064 0.137380
v -0.295261 -0.159064 0.107163
v -0.266280 -0.159064 0.065725
v -0.154604 -0.159064 0.014866
v -0.900604 -0.159064 0.236866
v -0.557901 -0.159064 0.220241
v -0.485479 -0.159064 0.177366
v -0.438062 -0.159064 0.097514
v -0.463304 -0.159064 -0.045449
v -0.596604 -0.159064 -0.123134
v -0.596604 -0.159064 -0.125134
v -0.510153 -0.159064 -0.194826
v -0.493294 -0.159064 -0.253900
v -0.504745 -0.159064 -0.334603
v -0.542479 -0.159064 -0.390384
v -0.636007 -0.159064 -0.438217
v -0.900604 -0.159064 -0.445134
v -0.802604 -0.159064 -0.357134
v -0.656042 -0.159064 -0.349462
v -0.611023 -0.159064 -0.319562
v -0.594585 -0.159064 -0.244654
v -0.618300 -0.159064 -0.190082
v -0.674182 -0.159064 -0.159900
v -0.802604 -0.159064 -0.153134
v -0.802604 -0.159064 -0.065134
v -0.583993 -0.159064 -0.044098
v -0.537636 -0.159064 0.011486
v -0.540245 -0.159064 0.079257
v -0.553584 -0.159064 0.103184
v -0.608276 -0.159064 0.139163
v -0.802604 -0.159064 0.148866
vn -0.0000 -1.0000 -0.0000
vn -0.0000 1.0000 -0.0000
vn -0.5798 -0.0000 -0.8148
vn 0.0273 -0.0000 0.9996
vn 0.8069 -0.0000 -0.5907
vn 0.9768 -0.0000 -0.2143
vn 0.0473 -0.0000 -0.9989
vn 0.5197 -0.0000 0.8543
vn 0.1873 -0.0000 -0.9823
vn -1.0000 -0.0000 -0.0000
vn 0.9965 -0.0000 -0.0841
vn -0.6276 -0.0000 -0.7785
vn 0.4286 -0.0000 0.9035
vn 0.4548 -0.0000 0.8906
vn 0.4037 -0.0000 0.9149
vn -0.4554 -0.0000 -0.8903
vn 0.7910 -0.0000 0.6119
vn 0.9825 -0.0000 -0.1865
vn 0.8747 -0.0000 -0.4847
vn -0.8678 -0.0000 0.4969
vn 0.1837 -0.0000 -0.9830
vn 0.4554 -0.0000 -0.8903
vn 0.1861 -0.0000 0.9825
vn -0.4145 -0.0000 -0.9101
vn -0.4553 -0.0000 0.8903
vn -0.4404 -0.0000 -0.8978
vn -0.6370 -0.0000 0.7708
vn 1.0000 -0.0000 0.0091
vn -0.8598 -0.0000 -0.5106
vn -0.0000 -0.0000 1.0000
vn 0.6500 -0.0000 -0.7599
vn -0.0261 -0.0000 0.9997
vn -0.3586 -0.0000 0.9335
vn 1.0000 -0.0000 -0.0000
vn 0.9475 -0.0000 0.3197
vn 0.5533 -0.0000 -0.8330
vn -0.9965 -0.0000 0.0834
vn -0.1669 -0.0000 -0.9860
vn 0.9639 -0.0000 -0.2662
vn 0.3887 -0.0000 0.9214
vn 0.8734 -0.0000 0.4869
vn -0.3725 -0.0000 0.9280
vn -0.5035 -0.0000 0.8640
vn 0.9194 -0.0000 0.3934
vn -0.9983 -0.0000 0.0588
vn -0.9616 -0.0000 -0.2744
vn -0.0127 -0.0000 -0.9999
vn 0.4752 -0.0000 0.8799
vn -0.8283 -0.0000 0.5603
vn -0.9901 -0.0000 0.1405
vn 0.0499 -0.0000 0.9988
vn -0.9996 -0.0000 0.0274
vn 0.7680 -0.0000 -0.6405
vn 0.9171 -0.0000 0.3986
vn -0.8444 -0.0000 -0.5357
vn 0.0526 -0.0000 0.9986
vn -0.4480 -0.0000 -0.8940
vn -0.9848 -0.0000 0.1739
vn 0.0958 -0.0000 -0.9954
vn -0.9460 -0.0000 -0.3241
vn -0.9705 -0.0000 0.2411
vn -0.5767 -0.0000 -0.8169
vn -0.0000 -0.0000 -1.0000
vn 0.9993 -0.0000 0.0385
vn 0.3400 -0.0000 -0.9404
vn -0.3087 -0.0000 0.9512
vn 0.5496 -0.0000 0.8354
vn -0.8195 -0.0000 -0.5731
vn -0.5275 -0.0000 0.8495
vn 0.8031 -0.0000 -0.5958
vn -0.5094 -0.0000 -0.8605
vn -0.3003 -0.0000 0.9538
vn -0.0485 -0.0000 -0.9988
vn 0.0523 -0.0000 -0.9986
vt 0.804511 0.000000
vt 0.669173 0.000000
vt 0.624060 0.000000
vt 0.593985 0.000000
vt 0.563910 0.000000
vt 0.458647 0.000000
vt 0.451128 0.000000
vt 0.360902 0.000000
vt 0.300752 0.000000
vt 0.270677 0.000000
vt 0.263158 0.000000
vt 0.187970 0.000000
vt 0.165414 0.000000
vt 0.127820 0.000000
vt 0.075188 0.000000
vt 0.000000 0.000000
vt 1.000000 0.000000
vt 0.909774 0.000000
vt 0.879699 0.000000
vt 0.849624 0.000000
vt 0.819549 0.000000
vt 0.666667 0.000000
vt 0.333333 0.000000
vt 0.895954 0.000000
vt 0.526012 0.000000
vt 0.508671 0.000000
vt 0.919075 0.000000
vt 0.352381 0.000000
vt 0.628571 0.000000
vt 0.571429 0.000000
vt 0.533333 0.000000
vt 0.495238 0.000000
vt 0.457143 0.000000
vt 0.419048 0.000000
vt 0.390476 0.000000
vt 0.314286 0.000000
vt 0.247619 0.000000
vt 0.238095 0.000000
vt 0.171429 0.000000
vt 0.809524 0.000000
vt 0.752381 0.000000
vt 0.961905 0.000000
vt 0.923810 0.000000
vt 0.904762 0.000000
vt 0.104762 0.000000
vt 0.066667 0.000000
vt 0.038095 0.000000
vt 0.485714 0.000000
vt 0.742857 0.000000
vt 0.704762 0.000000
vt 0.857143 0.000000
vt 0.647399 0.000000
vt 0.601156 0.000000
vt 0.566474 0.000000
vt 0.549133 0.000000
vt 0.861272 0.000000
vt 0.791907 0.000000
vt 0.959538 0.000000
vt 0.936416 0.000000
vt 0.479769 0.000000
vt 0.433526 0.000000
vt 0.410405 0.000000
vt 0.387283 0.000000
vt 0.335260 0.000000
vt 0.289017 0.000000
vt 0.283237 0.000000
vt 0.236994 0.000000
vt 0.202312 0.000000
vt 0.167630 0.000000
vt 0.098266 0.000000
vt 0.069364 0.000000
vt 0.786127 0.000000
vt 0.734104 0.000000
vt 0.676301 0.000000
s 0
f 16/1/1 15/2/1 14/3/1 13/4/1 12/5/1 11/6/1 10/7/1 9/8/1 8/9/1 7/10/1 6/11/1 5/12/1 4/13/1 3/14/1 2/15/1 1/16/1 21/17/1 20/18/1 19/19/1 18/20/1 17/21/1
f 24/22/1 23/23/1 22/16/1 25/17/1
f 54/24/1 44/25/1 43/26/1 55/27/1
f 67/28/1 75/29/1 74/30/1 73/31/1 72/32/1 70/33/1 69/34/1 68/35/1
f 67/28/1 66/36/1 65/37/1 64/38/1 63/39/1 80/40/1 79/41/1 85/17/1 84/42/1 83/43/1 82/44/1 62/45/1 61/46/1 60/47/1 59/16/1 71/48/1 70/33/1 72/32/1 78/49/1 77/50/1 76/22/1 75/29/1
f 82/44/1 81/51/1 80/40/1 63/39/1 62/45/1
f 28/22/1 27/23/1 26/16/1 29/17/1
f 48/52/1 47/53/1 46/54/1 45/55/1 44/25/1 54/24/1 53/56/1 52/57/1 58/17/1 57/58/1 56/59/1 55/27/1 43/26/1 42/60/1 41/61/1 40/62/1 39/63/1 38/64/1 37/65/1 36/66/1 35/67/1 34/68/1 33/69/1 32/70/1 31/71/1 30/16/1 51/72/1 50/73/1 49/74/1
f 101/1/2 102/21/2 103/20/2 104/19/2 105/18/2 106/17/2 86/16/2 87/15/2 88/14/2 89/13/2 90/12/2 91/11/2 92/10/2 93/9/2 94/8/2 95/7/2 96/6/2 97/5/2 98/4/2 99/3/2 100/2/2
f 109/22/2 110/17/2 107/16/2 108/23/2
f 139/24/2 140/27/2 128/26/2 129/25/2
f 152/28/2 153/35/2 154/34/2 155/33/2 157/32/2 158/31/2 159/30/2 160/29/2
f 152/28/2 160/29/2 161/22/2 162/50/2 163/49/2 157/32/2 155/33/2 156/48/2 144/16/2 145/47/2 146/46/2 147/45/2 167/44/2 168/43/2 169/42/2 170/17/2 164/41/2 165/40/2 148/39/2 149/38/2 150/37/2 151/36/2
f 167/44/2 147/45/2 148/39/2 165/40/2 166/51/2
f 113/22/2 114/17/2 111/16/2 112/23/2
f 133/52/2 134/74/2 135/73/2 136/72/2 115/16/2 116/71/2 117/70/2 118/69/2 119/68/2 120/67/2 121/66/2 122/65/2 123/64/2 124/63/2 125/62/2 126/61/2 127/60/2 128/26/2 140/27/2 141/59/2 142/58/2 143/17/2 137/57/2 138/56/2 139/24/2 129/25/2 130/55/2 131/54/2 132/53/2
f 37/65/3 38/64/3 123/64/3 122/65/3
f 34/68/4 35/67/4 120/67/4 119/68/4
f 44/25/5 45/55/5 130/55/5 129/25/5
f 74/30/6 75/29/6 160/29/6 159/30/6
f 38/64/7 39/63/7 124/63/7 123/64/7
f 35/67/8 36/66/8 121/66/8 120/67/8
f 49/74/9 50/73/9 135/73/9 134/74/9
f 78/49/10 72/32/10 157/32/10 163/49/10
f 40/62/11 41/61/11 126/61/11 125/62/11
f 65/37/12 66/36/12 151/36/12 150/37/12
f 52/57/13 53/56/13 138/56/13 137/57/13
f 30/16/14 31/71/14 116/71/14 115/16/14
f 41/61/15 42/60/15 127/60/15 126/61/15
f 47/53/16 48/52/16 133/52/16 132/53/16
f 3/14/17 4/13/17 89/13/17 88/14/17
f 64/38/10 65/37/10 150/37/10 149/38/10
f 43/26/18 44/25/18 129/25/18 128/26/18
f 48/52/19 49/74/19 134/74/19 133/52/19
f 54/24/20 55/27/20 140/27/20 139/24/20
f 11/6/21 12/5/21 97/5/21 96/6/21
f 45/55/22 46/54/22 131/54/22 130/55/22
f 2/15/23 3/14/23 88/14/23 87/15/23
f 57/58/24 58/17/24 143/17/24 142/58/24
f 69/34/25 70/33/25 155/33/25 154/34/25
f 51/72/10 30/16/10 115/16/10 136/72/10
f 12/5/26 13/4/26 98/4/26 97/5/26
f 15/2/27 16/1/27 101/1/27 100/2/27
f 4/13/28 5/12/28 90/12/28 89/13/28
f 61/46/29 62/45/29 147/45/29 146/46/29
f 26/16/30 27/23/30 112/23/30 111/16/30
f 5/12/31 6/11/31 91/11/31 90/12/31
f 70/33/32 71/48/32 156/48/32 155/33/32
f 29/17/10 26/16/10 111/16/10 114/17/10
f 53/56/33 54/24/33 139/24/33 138/56/33
f 71/48/34 59/16/34 144/16/34 156/48/34
f 85/17/10 79/41/10 164/41/10 170/17/10
f 7/10/35 8/9/35 93/9/35 92/10/35
f 73/31/36 74/30/36 159/30/36 158/31/36
f 32/70/37 33/69/37 118/69/37 117/70/37
f 19/19/38 20/18/38 105/18/38 104/19/38
f 6/11/39 7/10/39 92/10/39 91/11/39
f 8/9/40 9/8/40 94/8/40 93/9/40
f 82/44/41 83/43/41 168/43/41 167/44/41
f 9/8/42 10/7/42 95/7/42 94/8/42
f 63/39/43 64/38/43 149/38/43 148/39/43
f 42/60/44 43/26/44 128/26/44 127/60/44
f 14/3/45 15/2/45 100/2/45 99/3/45
f 66/36/46 67/28/46 152/28/46 151/36/46
f 46/54/47 47/53/47 132/53/47 131/54/47
f 76/22/48 77/50/48 162/50/48 161/22/48
f 68/35/49 69/34/49 154/34/49 153/35/49
f 67/28/50 68/35/50 153/35/50 152/28/50
f 27/23/34 28/22/34 113/22/34 112/23/34
f 84/42/51 85/17/51 170/17/51 169/42/51
f 55/27/52 56/59/52 141/59/52 140/27/52
f 80/40/53 81/51/53 166/51/53 165/40/53
f 75/29/54 76/22/54 161/22/54 160/29/54
f 13/4/55 14/3/55 99/3/55 98/4/55
f 77/50/56 78/49/56 163/49/56 162/50/56
f 58/17/34 52/57/34 137/57/34 143/17/34
f 50/73/57 51/72/57 136/72/57 135/73/57
f 23/23/34 24/22/34 109/22/34 108/23/34
f 62/45/58 63/39/58 148/39/58 147/45/58
f 10/7/34 11/6/34 96/6/34 95/7/34
f 21/17/10 1/16/10 86/16/10 106/17/10
f 79/41/59 80/40/59 165/40/59 164/41/59
f 17/21/60 18/20/60 103/20/60 102/21/60
f 16/1/61 17/21/61 102/21/61 101/1/61
f 22/16/30 23/23/30 108/23/30 107/16/30
f 18/20/62 19/19/62 104/19/62 103/20/62
f 24/22/63 25/17/63 110/17/63 109/22/63
f 81/51/64 82/44/64 167/44/64 166/51/64
f 25/17/10 22/16/10 107/16/10 110/17/10
f 20/18/65 21/17/65 106/17/65 105/18/65
f 1/16/66 2/15/66 87/15/66 86/16/66
f 83/43/67 84/42/67 169/42/67 168/43/67
f 28/22/63 29/17/63 114/17/63 113/22/63
f 56/59/68 57/58/68 142/58/68 141/59/68
f 33/69/69 34/68/69 119/68/69 118/69/69
f 39/63/70 40/62/70 125/62/70 124/63/70
f 60/47/71 61/46/71 146/46/71 145/47/71
f 36/66/34 37/65/34 122/65/34 121/66/34
f 31/71/72 32/70/72 117/70/72 116/71/72
f 59/16/73 60/47/73 145/47/73 144/16/73
f 72/32/74 73/31/74 158/31/74 157/32/74
